<svg width="159" height="159" viewBox="0 0 159 159" fill="none" xmlns="http://www.w3.org/2000/svg">
<path d="M48.8425 133.12L25.2514 145.577L0.5 133.12V27.8252L47.2956 0.576843L105.5 33.6641V90.3017L48.8425 58.1468V133.12Z" fill="#49C8E8"/>
<path d="M25.2514 145.577C25.2514 145.577 39.6296 137.985 48.8425 133.12V58.1468M25.2514 145.577L0.5 133.12V27.8252L47.2956 0.576843L105.5 33.6641V90.3017L48.8425 58.1468M25.2514 145.577V44.7581L48.8425 58.1468" stroke="#5E738B"/>
<path d="M110.157 25.0332L133.749 12.5769L158.5 25.0332L158.5 130.329L111.704 157.577L53.5 124.49L53.5 67.852L110.157 100.007L110.157 25.0332Z" fill="#5E738B"/>
<path d="M133.749 12.5769C133.749 12.5769 119.37 20.1687 110.157 25.0332L110.157 100.007M133.749 12.5769L158.5 25.0332L158.5 130.329L111.704 157.577L53.5 124.49L53.5 67.852L110.157 100.007M133.749 12.5769L133.749 113.396L110.157 100.007" stroke="#49C8E8"/>
</svg>
