 
<svg width="208" height="58" viewBox="0 0 208 58" fill="none" xmlns="http://www.w3.org/2000/svg">
<path d="M16.6136 29.7273L17.9091 22.0909H48.25L46.9545 29.7273H36.4545L31.9545 57H22.6136L27.1136 29.7273H16.6136ZM51.9581 57.4773C49.1626 57.4773 46.8444 56.9432 45.0035 55.875C43.1626 54.7955 41.8672 53.25 41.1172 51.2386C40.3672 49.2159 40.2308 46.7955 40.7081 43.9773C41.1626 41.2727 42.1001 38.9091 43.5206 36.8864C44.9524 34.8636 46.7535 33.2898 48.924 32.1648C51.1058 31.0398 53.549 30.4773 56.2535 30.4773C58.2308 30.4773 59.9637 30.7841 61.4524 31.3977C62.9524 32.0114 64.174 32.9034 65.1172 34.0739C66.0603 35.2443 66.6967 36.6591 67.0262 38.3182C67.3672 39.9659 67.3672 41.8295 67.0262 43.9091L66.6853 46.0909H43.299L44.1172 40.9091H58.8444C58.9581 40.1591 58.8842 39.5 58.6228 38.9318C58.3728 38.3523 57.9694 37.9034 57.4126 37.5852C56.8672 37.2557 56.2081 37.0909 55.4353 37.0909C54.6626 37.0909 53.9353 37.2557 53.2535 37.5852C52.5831 37.9148 52.0092 38.375 51.5319 38.9659C51.066 39.5568 50.7535 40.25 50.5944 41.0455L49.5717 46.5C49.4353 47.3409 49.4865 48.0909 49.7251 48.75C49.9637 49.4091 50.3785 49.9261 50.9694 50.3011C51.5603 50.6761 52.3217 50.8636 53.2535 50.8636C53.8899 50.8636 54.4922 50.7784 55.0603 50.608C55.6399 50.4261 56.1512 50.1648 56.5944 49.8239C57.049 49.4716 57.4126 49.0455 57.6853 48.5455H66.2762C65.6626 50.3636 64.691 51.9432 63.3615 53.2841C62.0433 54.6136 60.4183 55.6477 58.4865 56.3864C56.566 57.1136 54.3899 57.4773 51.9581 57.4773ZM85.7812 30.8182L84.6221 37.6364H67.3721L68.5312 30.8182H85.7812ZM72.8948 24.5455H82.3039L78.3153 48.5795C78.2585 48.9432 78.2698 49.25 78.3494 49.5C78.4289 49.7386 78.588 49.9205 78.8266 50.0455C79.0766 50.1591 79.4062 50.2159 79.8153 50.2159C80.088 50.2159 80.4232 50.1818 80.821 50.1136C81.2187 50.0341 81.5198 49.9773 81.7244 49.9432L81.9971 56.5568C81.5198 56.6932 80.8778 56.8466 80.071 57.017C79.2755 57.1989 78.3494 57.3182 77.2926 57.375C75.088 57.4773 73.2926 57.2443 71.9062 56.6761C70.5312 56.108 69.5766 55.2216 69.0426 54.017C68.5198 52.8011 68.4289 51.2841 68.7698 49.4659L72.8948 24.5455ZM89.6043 57.4091C87.9452 57.4091 86.5191 57.1364 85.3259 56.5909C84.1441 56.0341 83.2805 55.1932 82.735 54.0682C82.2009 52.9318 82.0816 51.5 82.377 49.7727C82.6157 48.3409 83.0645 47.1193 83.7236 46.108C84.3827 45.0966 85.2009 44.267 86.1782 43.6193C87.1555 42.9716 88.252 42.4773 89.468 42.1364C90.6952 41.7841 91.9907 41.5568 93.3543 41.4545C94.8316 41.3409 96.0305 41.1989 96.9509 41.0284C97.8714 40.858 98.5589 40.625 99.0134 40.3295C99.468 40.0341 99.7407 39.6364 99.8316 39.1364V39.0682C99.9339 38.3864 99.752 37.8636 99.2861 37.5C98.8316 37.1364 98.1952 36.9545 97.377 36.9545C96.4907 36.9545 95.7236 37.1477 95.0759 37.5341C94.4395 37.9205 94.002 38.5227 93.7634 39.3409H85.1043C85.468 37.75 86.2123 36.2841 87.3373 34.9432C88.4736 33.5909 89.9793 32.5114 91.8543 31.7045C93.7407 30.8864 95.9907 30.4773 98.6043 30.4773C100.468 30.4773 102.104 30.6989 103.513 31.142C104.923 31.5739 106.087 32.1818 107.008 32.9659C107.94 33.7386 108.593 34.6477 108.968 35.6932C109.354 36.7273 109.445 37.8523 109.241 39.0682L106.241 57H97.4452L98.0589 53.3182H97.8543C97.1725 54.2955 96.4055 55.0852 95.5532 55.6875C94.7123 56.2898 93.7918 56.7273 92.7918 57C91.8032 57.2727 90.7407 57.4091 89.6043 57.4091ZM93.6952 51.4773C94.3998 51.4773 95.093 51.3295 95.7748 51.0341C96.4566 50.7386 97.0418 50.3125 97.5305 49.7557C98.0191 49.1989 98.3316 48.5227 98.468 47.7273L98.8089 45.5455C98.5589 45.6477 98.2805 45.7443 97.9736 45.8352C97.6782 45.9148 97.3657 45.9943 97.0361 46.0739C96.718 46.1534 96.377 46.2273 96.0134 46.2955C95.6611 46.3636 95.2975 46.4318 94.9225 46.5C94.1725 46.6136 93.5418 46.8011 93.0305 47.0625C92.5191 47.3125 92.1214 47.625 91.8373 48C91.5532 48.3636 91.377 48.7727 91.3089 49.2273C91.2066 49.9432 91.3714 50.5 91.8032 50.8977C92.2464 51.2841 92.877 51.4773 93.6952 51.4773ZM117.334 50.7955L119.243 39.6136H120.47L128.311 30.8182H138.879L125.993 44.5227H123.334L117.334 50.7955ZM107.856 57L113.652 22.0909H123.061L117.266 57H107.856ZM124.016 57L119.72 46.6364L127.016 39.9545L134.788 57H124.016ZM145.485 57.4773C142.689 57.4773 140.371 56.9432 138.53 55.875C136.689 54.7955 135.394 53.25 134.644 51.2386C133.894 49.2159 133.758 46.7955 134.235 43.9773C134.689 41.2727 135.627 38.9091 137.047 36.8864C138.479 34.8636 140.28 33.2898 142.451 32.1648C144.633 31.0398 147.076 30.4773 149.78 30.4773C151.758 30.4773 153.491 30.7841 154.979 31.3977C156.479 32.0114 157.701 32.9034 158.644 34.0739C159.587 35.2443 160.224 36.6591 160.553 38.3182C160.894 39.9659 160.894 41.8295 160.553 43.9091L160.212 46.0909H136.826L137.644 40.9091H152.371C152.485 40.1591 152.411 39.5 152.15 38.9318C151.9 38.3523 151.496 37.9034 150.939 37.5852C150.394 37.2557 149.735 37.0909 148.962 37.0909C148.189 37.0909 147.462 37.2557 146.78 37.5852C146.11 37.9148 145.536 38.375 145.059 38.9659C144.593 39.5568 144.28 40.25 144.121 41.0455L143.099 46.5C142.962 47.3409 143.013 48.0909 143.252 48.75C143.491 49.4091 143.905 49.9261 144.496 50.3011C145.087 50.6761 145.849 50.8636 146.78 50.8636C147.417 50.8636 148.019 50.7784 148.587 50.608C149.167 50.4261 149.678 50.1648 150.121 49.8239C150.576 49.4716 150.939 49.0455 151.212 48.5455H159.803C159.189 50.3636 158.218 51.9432 156.888 53.2841C155.57 54.6136 153.945 55.6477 152.013 56.3864C150.093 57.1136 147.917 57.4773 145.485 57.4773ZM171.263 42.2727L168.808 57H159.399L163.763 30.8182H172.694L171.876 35.7955H172.149C172.979 34.125 174.189 32.8239 175.78 31.892C177.382 30.9489 179.149 30.4773 181.081 30.4773C182.933 30.4773 184.473 30.8977 185.7 31.7386C186.927 32.5795 187.797 33.7386 188.308 35.2159C188.819 36.6932 188.91 38.3864 188.581 40.2955L185.785 57H176.376L178.831 42.2727C179.047 40.9773 178.888 39.9602 178.354 39.2216C177.831 38.483 176.967 38.1136 175.763 38.1136C175.001 38.1136 174.302 38.2841 173.666 38.625C173.041 38.9545 172.518 39.4318 172.098 40.0568C171.689 40.6705 171.41 41.4091 171.263 42.2727ZM207.459 30.8182L206.3 37.6364H189.05L190.209 30.8182H207.459ZM194.573 24.5455H203.982L199.993 48.5795C199.937 48.9432 199.948 49.25 200.027 49.5C200.107 49.7386 200.266 49.9205 200.505 50.0455C200.755 50.1591 201.084 50.2159 201.493 50.2159C201.766 50.2159 202.101 50.1818 202.499 50.1136C202.897 50.0341 203.198 49.9773 203.402 49.9432L203.675 56.5568C203.198 56.6932 202.556 56.8466 201.749 57.017C200.954 57.1989 200.027 57.3182 198.971 57.375C196.766 57.4773 194.971 57.2443 193.584 56.6761C192.209 56.108 191.255 55.2216 190.721 54.017C190.198 52.8011 190.107 51.2841 190.448 49.4659L194.573 24.5455Z" fill="white"/>
<path d="M13.5 15.5H38.5L1 1L9 39L13.5 15.5Z" fill="white" stroke="white"/>
</svg>
